<?xml version="1.0" encoding="UTF-8"?>
<svg id="Layer_1" data-name="Layer 1" xmlns="http://www.w3.org/2000/svg" viewBox="0 0 67.91 56.69">
  <defs>
    <style>
      .cls-1 {
        fill: #aacfd5;
      }

      .cls-1, .cls-2 {
        stroke-width: 0px;
      }

      .cls-2 {
        fill: #fff;
      }
    </style>
  </defs>
  <rect class="cls-1" width="67.91" height="56.69" rx="12" ry="12"/>
  <path class="cls-2" d="M63.77,37.86c-.41,3.03-4.12,4.28-6.28,2.11l-1.55-1.55c-1.19-1.19-2.42-2.35-3.53-3.6-.56-.64-.88-.52-1.39,0-1.59,1.62-3.23,3.18-4.81,4.82-7.02,7.3-18.22,7.05-24.95-.57-2.54-2.88-5.37-5.48-8.05-8.22-5.06-5.16-4.21-4.28-8.26-8.38-.82-.82-1.2-1.98-1.04-3.13h0c.43-3.02,4.12-4.25,6.28-2.09l1.87,1.87c1.29,1.2,2.5,2.48,3.71,3.76.42.44.69.46,1.12,0,1.67-1.76,3.45-3.4,5.09-5.2,6.15-6.73,17.23-6.99,23.63-.46,3.34,3.41,6.74,6.77,10.05,10.21,4.64,4.83,3.43,3.65,7.06,7.26.82.82,1.21,1.97,1.06,3.12v.06Z"/>
  <path class="cls-1" d="M33.56,38.44c-2.45.06-4.77-1.29-6.8-3.23-1.97-1.88-3.85-3.86-5.82-5.75-.63-.61-.59-.96.02-1.54,2.23-2.13,4.38-4.34,6.61-6.46,3.51-3.33,9.48-3.35,13.02,0,2.27,2.15,4.4,4.43,6.64,6.61.58.57.55.92-.01,1.46-2.2,2.09-4.33,4.26-6.55,6.33-1.84,1.72-4.07,2.58-7.1,2.57Z"/>
  <path class="cls-2" d="M34.08,34.4c-3.22-.02-5.76-2.55-5.75-5.72,0-3.25,2.55-5.67,5.93-5.64,3.09.02,5.59,2.62,5.58,5.77-.01,3.07-2.63,5.61-5.76,5.59Z"/>
</svg>